PathFileType	4	(X/Y/Z)	17_2_43_p0_0-1080.trc
DataRate	CameraRate	NumFrames	NumMarkers	Units	OrigDataRate	OrigDataStartFrame	OrigNumFrames
60.0	60.0	6	27	m	60.0	945	1081
Frame#	Time	RHip			RKnee			RAnkle			RBigToe			RSmallToe			RHeel			LHip			LKnee			LAnkle			LBigToe			LSmallToe			LHeel			Neck			Head			Nose			RShoulder			RElbow			RWrist			RThumb			RIndex			RPinky			LShoulder			LElbow			LWrist			LThumb			LIndex			LPinky			
		X1	Y1	Z1	X2	Y2	Z2	X3	Y3	Z3	X4	Y4	Z4	X5	Y5	Z5	X6	Y6	Z6	X7	Y7	Z7	X8	Y8	Z8	X9	Y9	Z9	X10	Y10	Z10	X11	Y11	Z11	X12	Y12	Z12	X13	Y13	Z13	X14	Y14	Z14	X15	Y15	Z15	X16	Y16	Z16	X17	Y17	Z17	X18	Y18	Z18	X19	Y19	Z19	X20	Y20	Z20	X21	Y21	Z21	X22	Y22	Z22	X23	Y23	Z23	X24	Y24	Z24	X25	Y25	Z25	X26	Y26	Z26	X27	Y27	Z27	
945	15.75	0.2714700641390643	0.43036128896917264	0.88742977564444	0.25572514688098785	0.5761475407158442	1.3064483779270588	0.22799321829927122	0.693775870445903	1.6970273291830043	0.25474527505020966	0.5309215411699852	1.7313818721748921	0.3053539410790113	0.5692157952450391	1.7387483846636735	0.19507127543941533	0.7775665988590796	1.7652469180150638	0.07104295658875272	0.4066785724293263	0.8922474638681768	0.06073909526594421	0.5638276623153747	1.3131199070452568	0.047798169587807623	0.6679472028877298	1.7250677899269864	0.08092945009514822	0.458497466659992	1.7175080350894318	0.016050530390429137	0.5131982136575731	1.7299194025800901	0.05462102292646924	0.7133859444055707	1.7614744787275947	0.1386742036867521	0.3457764582023965	0.31488539303872465	0.10214509418100237	0.23797850389090522	0.08086727273598891	0.1412176304172902	0.2438100794688198	0.22663646720260303	0.29255170235696765	0.44335134890015304	0.400000350701435	0.3622685070920642	0.4349583742301436	0.6491610970233082	0.3836265877245532	0.419104211878045	0.9078515722761019	0.32785965267037764	0.3965136535672393	1.0185752853349272	0.351000413359531	0.37928081205183056	1.0239121621028147	0.383996914397554	0.43587277462783497	1.0303034935626811	-0.011992956580023528	0.3803750995532085	0.41507059405598395	-0.031749710410827255	0.3747743925320977	0.6762747963396339	-0.02057734255119106	0.35879780317564874	0.9081761396495067	0.05621883067195928	0.3587256012692149	0.9970187918494281	0.02571813203077591	0.36278759258401294	1.034390676374456	-0.033253709940740846	0.36616956956789876	1.019308247260185
946	15.766666666666667	0.27184324509977975	0.4298870259640584	0.891008935994301	0.2549808526223062	0.5766807222952357	1.3108644768807218	0.22801633737267843	0.693781182115782	1.6970619924127275	0.25466780489765156	0.5307064500805889	1.7309770935651054	0.3052878233909515	0.5695357631955689	1.7387986022549282	0.19507900375732146	0.7774250346765629	1.7655787285490796	0.07103969705310575	0.40672811387462054	0.8923463588444861	0.06077044485909468	0.5637343994286654	1.3130355143444339	0.04844522611703466	0.6706346286374564	1.731409182423074	0.08100474793764417	0.45814030291303637	1.7174211633068013	0.01609519954334411	0.5131270907777882	1.729812408201126	0.05666287089316918	0.7315452005529732	1.7749430891230917	0.1386372810107489	0.3457450166299042	0.31498639224429953	0.10216705039564665	0.23769361420688137	0.08088998057075635	0.14493434479922843	0.2226330401272733	0.2264695757263561	0.29251865977890507	0.4432750767367549	0.40000106692166304	0.36221066969359245	0.4350242727032201	0.6491448726421011	0.37862725016673643	0.43213954454744075	0.9113251575140244	0.32791568676107524	0.3963641679693454	1.0185428406605317	0.35097498206960515	0.3790852024988173	1.0239030047836701	0.38399768657053834	0.4360119873672457	1.0303690300129207	-0.011828266945279789	0.38182331963258953	0.41880071414483344	-0.03172438308464221	0.37497751991340594	0.6763745455610184	-0.020487341532669182	0.3589138512327378	0.9082537245271268	0.05037747147440058	0.36971751499760275	1.000578173324862	0.017822909620098526	0.3632148070359828	1.0351665518197413	-0.032541148041772175	0.36638711908261706	1.0156425896075125
947	15.783333333333333	0.2713885951156348	0.43039287047497315	0.8875297989053308	0.25494226820968074	0.5765914061053471	1.3108973327187592	0.22103184753630928	0.7081187646978446	1.7000985896714067	0.25475317728269503	0.5309133010254431	1.7312225453038954	0.30528207965592996	0.5695419893849125	1.7388298119552463	0.1950223396977156	0.7777635994427065	1.7653083952446325	0.07101048553125652	0.4065516539385284	0.8922395470919794	0.060902293270525105	0.5635961493900155	1.3131071289196947	0.04778257519108429	0.6679423140417742	1.7251816996324816	0.08048993530931688	0.45621274154765323	1.7123181587323868	0.016120124753200297	0.5131904895279972	1.7296581431719624	0.055902501141840484	0.7287477637383104	1.7689337220047023	0.13875932225627513	0.3469785109794807	0.3186812387619827	0.10208532285369627	0.23757115184236033	0.08093567542959551	0.1397585380718194	0.23305990859139658	0.22677436762675424	0.2902218290447076	0.4305165804887149	0.3958951812596246	0.3595959871852885	0.4229437064659653	0.6510582181631678	0.3836678794349642	0.41916804940018515	0.9077945672602455	0.328007972159403	0.3964306614331657	1.0184828970368776	0.3510146818386012	0.37918369072786406	1.023934295606807	0.38407109541821405	0.4360931952695089	1.0304913644161595	-0.011826509733621718	0.3815943681550462	0.4188249622024048	-0.03172587104856926	0.3749702284737398	0.6763208444829786	-0.019426890586699726	0.3726976340854471	0.9149972418367979	0.05668996060138357	0.36059990409967657	1.0021090568002828	0.027169566062628787	0.36590202884580264	1.0472304667345962	-0.03209033204409573	0.36805684349800266	1.0195993778205725
948	15.8	0.27133439781312874	0.43042126139896364	0.8876129809069968	0.25793220069952716	0.5901954656135008	1.3111299248600077	0.22726723349667824	0.6913863308077333	1.6916190585095603	0.25482582481891797	0.5307660012489962	1.7310798509022312	0.3054319238364096	0.5693238902640237	1.7386465756509144	0.19500045407619193	0.7772139046140469	1.765181311654568	0.07063373973909332	0.40726990884861436	0.8887500391429829	0.06135503811098336	0.5630230370567346	1.3171803476421828	0.04770157312442103	0.6678733379260622	1.725020017810454	0.08177511266550545	0.47158399834058445	1.724006043273033	0.00914719038041226	0.5270069150302964	1.7375781564678718	0.054416709314249335	0.7135014648013039	1.7615767282022043	0.13877631801797252	0.3469032591000622	0.31866753619576993	0.09852645494956819	0.23425080956494654	0.08129942383158524	0.13584311690245626	0.23063526115169183	0.22699180516831716	0.29016703774394875	0.43055974875566105	0.3959007426334544	0.3597374170905211	0.42249311524201705	0.6546610948950965	0.37875482966764235	0.4323156088420611	0.911209504821649	0.3279909555865787	0.3965868413290662	1.0185379514500341	0.3509190037697947	0.3794639853099235	1.0241015367416104	0.38396692590101433	0.43632156286348633	1.0303797254467284	-0.012075341935215367	0.38180168717076707	0.41547921044152103	-0.03181942499916032	0.37495553569861406	0.676245842087689	-0.020219316236346086	0.36039220783596626	0.9123193030632827	0.050314951556996966	0.37201899050190473	1.0088527400635434	0.020385211126640403	0.3787280373275254	1.051254789678956	-0.03234190827360994	0.3678297992185067	1.0273725440543553
949	15.816666666666666	0.2708398728018053	0.42867846951645855	0.8833128989404125	0.2556753985065404	0.5763431602514786	1.3063887376559662	0.22912384023893945	0.7065683605198284	1.698376736425297	0.25485919594711104	0.5305516824228124	1.7310668534737663	0.30541653164260973	0.5692181025101374	1.7387028781321627	0.19505250018183456	0.7775618086792268	1.7652688146230802	0.07097334811272263	0.40661294087009603	0.8922337266682266	0.06130611602680737	0.5628005351272866	1.3170262948466085	0.043799955474582195	0.6654586653899066	1.7244754151083188	0.08120824166504582	0.4691691223418031	1.7187113445709723	0.01606698049259396	0.5133631622654513	1.7299292024711797	0.054548052288615534	0.713388381277108	1.761601773956731	0.13875882340206097	0.3467913618262424	0.3186686699606687	0.09849783557217867	0.23422823823461184	0.08132708465502239	0.13416603191931903	0.2202596096425011	0.22716467144290967	0.2901627346770342	0.4303857695999668	0.3958304466783564	0.36195419407791807	0.432884365649526	0.6486335145533428	0.3787686500430316	0.4323971557680825	0.9112043097555329	0.33030190182845126	0.4081615288796678	1.0214309082060857	0.35361631364680574	0.39099700062054277	1.0269404833246663	0.3834893469200774	0.4371655563815165	1.0275949694093602	-0.012083742750156463	0.3817161043795269	0.41551742313729034	-0.028394708179397637	0.37781606024832654	0.6765357831753045	-0.02026684801070392	0.36055472592703824	0.9124127013438601	0.05016167292454997	0.37224498354564817	1.0089608508654784	0.013626270915538672	0.3915794625851322	1.0554768102960281	-0.03237408427839653	0.3681021107427059	1.0275162695009925
950	15.833333333333334	0.2708270201673522	0.42849460767343533	0.8832665664221616	0.2570475437715229	0.5906634550176332	1.315692818255349	0.22168797453444275	0.7106758928296356	1.7057567720952311	0.25550682635821775	0.5292836143659343	1.7350974587462193	0.3053665949915844	0.5692159058379197	1.7389559641757082	0.19501190641429356	0.7776346439180166	1.7653704385537645	0.0710249299468521	0.4065419781592201	0.8921782636720554	0.06133673914251008	0.5631112827003172	1.317361715747235	0.048445519225216414	0.6702784502634476	1.7312777452797383	0.08172920478735804	0.4716269215214975	1.7238238483468846	0.01608090929999487	0.5133044659866236	1.7302148423086472	0.05516771612915898	0.7160925895347087	1.7676092573951678	0.1387614505028622	0.3467185428163002	0.318665478999256	0.09701177317175327	0.22457315041766515	0.08201234444433042	0.14074772432251928	0.2199224628837088	0.2270086099855013	0.2901520060400522	0.4304523542439662	0.3959859289391705	0.3613933700982819	0.43327301604728485	0.6485310153625273	0.37872710714850494	0.4322430476493807	0.9112271127881654	0.3279515002556248	0.3964310643621086	1.018493117078855	0.3509718851456461	0.37924873332457737	1.0239679814756046	0.3866850225764906	0.4375651087476317	1.0274864662762286	-0.012054761238878369	0.3816389512063164	0.4154677493758859	-0.02942624684594123	0.3656002803327965	0.67482486153768	-0.02021907023785274	0.36029020092736747	0.9123044975567631	0.05017438379949068	0.3721050716410917	1.0090369443418574	0.01924183467680788	0.36865265077965703	1.0525820844622416	-0.03284415641209195	0.36881623943071323	1.0239852160754834
